<?xml version="1.0" encoding="UTF-8"?>
<svg id="Layer_2" data-name="Layer 2" xmlns="http://www.w3.org/2000/svg" viewBox="0 0 639.9 767.84">
  <defs>
    <style>
      .cls-1 {
        fill: #fff7f7;
      }

      .cls-2 {
        fill: #fff4f4;
      }

      .cls-3 {
        fill: #fff2f2;
      }

      .cls-4 {
        fill: red;
      }
    </style>
  </defs>
  <g id="Layer_1-2" data-name="Layer 1">
    <g>
      <path class="cls-4" d="m356,611.32h-30c-3-.33-6-.67-9-1-10.67,0-21.33,0-32,0-3-.33-6-.67-9-1h-28c-.52-.4-1.28-.68-1.52-1.21-3.86-8.41-7.73-16.82-11.45-25.29-5.94-13.53-11.73-27.11-17.64-40.65-8.45-19.35-16.94-38.69-25.42-58.03-.04-.64-.09-1.29-.13-1.93-1.28-2.35-2.56-4.71-3.83-7.06-.34-.92-.67-1.85-1.01-2.77-.78-2.07-1.56-4.14-2.34-6.21-.54-1.02-1.08-2.05-1.63-3.07-.69-1.35-1.37-2.69-2.06-4.04l.76-.42c-.27-.08-.54-.16-.8-.24l-3.96-8.26c-.05-.64-.09-1.28-.14-1.92-1.28-2.36-2.56-4.71-3.83-7.07-.34-.92-.67-1.85-1.01-2.77-.78-2.07-1.56-4.14-2.34-6.21-.54-1.02-1.08-2.04-1.62-3.07-1.86-3.38-3.72-6.77-6.27-11.42-.78,2.7-1.18,4.08-1.58,5.47-.06,2-.16,3.99-.16,5.99,0,110.79,0,221.59,0,332.38v6.3H0v-4.59C0,521.15,0,279.07.08,36.99c0-1.83,1.18-3.66,1.81-5.49,1.13-.43,2.23-1.03,3.4-1.24,2.89-.52,5.8-.86,8.71-1.28,2.3-.49,4.59-.99,6.89-1.48,3.75-.65,7.53-1.19,11.26-1.96,8.75-1.81,17.48-3.71,26.2-5.62,2.57-.56,5.1-1.29,7.65-1.94l6.89-1.48c1.13-.43,2.23-1.03,3.4-1.24,2.89-.52,5.8-.86,8.71-1.28,2.29-.49,4.59-.97,6.88-1.46,4.04-.85,8.08-1.7,12.12-2.54,2.29-.49,4.59-.97,6.88-1.46,2.08-.32,4.19-.51,6.23-1,5.43-1.31,10.8-2.82,16.23-4.13,4.21-1.01,8.59-1.48,12.67-2.85,4.71-1.57,8.33.19,10.05,4.78,2.91,7.74,6.29,15.32,9.58,22.91,1.65,3.79,3.68,7.42,5.31,11.22,3.22,7.46,6.15,15.04,9.45,22.46,2.98,6.69,6.48,13.15,9.41,19.86,4.21,9.61,8.07,19.37,12.15,29.04,3.71,8.8,7.5,17.56,11.26,26.34.26.31.53.62.79.92,1.07,2.69,2.15,5.38,3.22,8.08.26.31.52.61.78.92,1.07,2.69,2.14,5.39,3.2,8.08.26.31.53.63.79.94l2.23,6.06.74,1.05c.02.33.1.65.23.95l.8.97c.74,2.01,1.48,4.02,2.22,6.03.26.31.53.62.79.92,1.07,2.69,2.15,5.38,3.22,8.08.26.31.52.61.78.92,1.07,2.69,2.14,5.39,3.2,8.08.26.31.53.63.79.94l2.23,6.06.74,1.05c.02.33.1.65.23.95l.8.97c.74,2.01,1.48,4.02,2.22,6.03l.79.92c1.07,2.69,2.15,5.38,3.22,8.08.26.31.52.61.78.92,1.07,2.69,2.14,5.39,3.2,8.08.26.31.53.63.79.94.74,2.02,1.49,4.04,2.23,6.06l.74,1.05c.02.33.1.65.23.95l.8.97c.74,2.01,1.48,4.02,2.22,6.03l.79.92c1.07,2.69,2.15,5.38,3.22,8.08.26.31.52.61.78.92l3.2,8.08c.26.31.53.63.79.94l2.23,6.06.74,1.05c.02.33.1.65.23.95l.8.97c.74,2.01,1.48,4.02,2.22,6.03.26.31.53.62.79.92,1.07,2.69,2.15,5.38,3.22,8.08.26.31.52.61.78.92,1.07,2.69,2.14,5.39,3.2,8.08.26.31.53.63.79.94l2.23,6.06.74,1.05c.02.33.1.65.23.95l.8.97c.74,2.01,1.48,4.02,2.22,6.03l.79.92c1.07,2.69,2.15,5.38,3.22,8.08.26.31.52.61.78.92,1.07,2.69,2.14,5.39,3.2,8.08.26.31.53.63.79.94.74,2.02,1.49,4.04,2.23,6.06.25.35.49.7.74,1.05.02.33.1.65.23.95.27.32.53.65.8.97.74,2.01,1.48,4.02,2.22,6.03l.79.92c1.07,2.69,2.15,5.38,3.22,8.08.26.31.52.61.78.92l3.2,8.08c.26.31.53.63.79.94.74,2.02,1.49,4.04,2.23,6.06l.74,1.05c.02.33.1.65.23.95l.8.97,2.22,6.03c.25.35.5.71.75,1.06,1.78,3.56,3.55,7.13,5.63,11.3,1.02-2.57,1.76-4.45,2.51-6.33,10.29-20.31,20.67-40.57,30.85-60.93,30.4-60.77,60.7-121.59,91.07-182.37,12.2-24.4,24.57-48.72,36.61-73.2,1.54-3.14,3.24-4.04,6.31-3.43,2.93.62,5.87,1.19,8.79,1.86,8.42,1.94,16.83,3.92,25.24,5.88,1.32.42,2.64.84,3.96,1.26,4.35,1.24,8.69,2.47,13.04,3.71,1.32.1,2.64.19,3.96.29,2.52.36,5.91-.17,7.39,1.27,2.97,2.87,6.22,2.54,9.6,2.72,1.34.34,2.67.67,4.01,1.01,4.33,1,8.66,2,12.99,2.99,1.34.34,2.67.67,4.01,1.01,4.35,1.24,8.69,2.47,13.04,3.71,1.32.1,2.64.19,3.96.29,4.35,1.24,8.69,2.47,13.04,3.71l3.96.29c2.52.36,5.91-.17,7.39,1.27,2.97,2.87,6.22,2.54,9.6,2.72,1.28.47,2.56.95,3.94,1.45v671.11h-159.64v-330.13c-.37-.16-.74-.33-1.12-.49-.78,1.39-1.62,2.76-2.33,4.18-27.61,55.12-55.26,110.22-82.72,165.41-1.96,3.94-4.09,5.7-8.61,5.46-6.81-.36-13.65,0-20.48.06-3-.33-6-.67-9-1Z"/>
      <path class="cls-3" d="m188,475.15c-.34-.92-.67-1.85-1.01-2.77.34.92.67,1.85,1.01,2.77Z"/>
      <path class="cls-3" d="m184.65,466.17c-.54-1.02-1.08-2.05-1.63-3.07.54,1.02,1.08,2.05,1.63,3.07Z"/>
      <path class="cls-2" d="m172.99,441.15c-.34-.92-.67-1.85-1.01-2.77.34.92.67,1.85,1.01,2.77Z"/>
      <path class="cls-2" d="m169.64,432.17c-.54-1.02-1.08-2.04-1.62-3.07.54,1.02,1.08,2.04,1.62,3.07Z"/>
      <path class="cls-3" d="m191.97,484.14c-.04-.64-.09-1.29-.13-1.93.04.64.09,1.29.13,1.93Z"/>
      <path class="cls-2" d="m176.96,450.14c-.05-.64-.09-1.28-.14-1.92.05.64.09,1.28.14,1.92Z"/>
      <path class="cls-1" d="m247.24,214.17c.26.31.52.61.78.92-.26-.31-.52-.61-.78-.92Z"/>
      <path class="cls-1" d="m251.22,223.17c.26.31.53.63.79.94-.26-.31-.53-.63-.79-.94Z"/>
      <path class="cls-1" d="m254.24,230.17l.74,1.05-.74-1.05Z"/>
      <path class="cls-1" d="m255.21,232.17l.8.97-.8-.97Z"/>
      <path class="cls-1" d="m262.24,248.17c.26.31.52.61.78.92-.26-.31-.52-.61-.78-.92Z"/>
      <path class="cls-1" d="m221.22,155.17c.26.31.53.63.79.94-.26-.31-.53-.63-.79-.94Z"/>
      <path class="cls-1" d="m269.24,264.17l.74,1.05-.74-1.05Z"/>
      <path class="cls-1" d="m270.21,266.17l.8.97-.8-.97Z"/>
      <path class="cls-1" d="m273.23,273.17l.79.92-.79-.92Z"/>
      <path class="cls-1" d="m277.24,282.17c.26.31.52.61.78.92-.26-.31-.52-.61-.78-.92Z"/>
      <path class="cls-1" d="m281.22,291.17c.26.31.53.63.79.94-.26-.31-.53-.63-.79-.94Z"/>
      <path class="cls-1" d="m284.24,298.17l.74,1.05-.74-1.05Z"/>
      <path class="cls-1" d="m285.21,300.17l.8.97-.8-.97Z"/>
      <path class="cls-1" d="m288.23,307.17l.79.92-.79-.92Z"/>
      <path class="cls-1" d="m292.24,316.17c.26.31.52.61.78.92-.26-.31-.52-.61-.78-.92Z"/>
      <path class="cls-1" d="m296.22,325.17c.26.31.53.63.79.94-.26-.31-.53-.63-.79-.94Z"/>
      <path class="cls-1" d="m299.24,332.17l.74,1.05c-.25-.35-.49-.7-.74-1.05Z"/>
      <path class="cls-1" d="m300.21,334.17l.8.97-.8-.97Z"/>
      <path class="cls-1" d="m303.23,341.17l.79.92-.79-.92Z"/>
      <path class="cls-1" d="m307.24,350.17c.26.31.52.61.78.92-.26-.31-.52-.61-.78-.92Z"/>
      <path class="cls-1" d="m311.22,359.17c.26.31.53.63.79.94-.26-.31-.53-.63-.79-.94Z"/>
      <path class="cls-1" d="m314.24,366.17l.74,1.05-.74-1.05Z"/>
      <path class="cls-1" d="m315.21,368.17l.8.97-.8-.97Z"/>
      <path class="cls-1" d="m318.23,375.17c.25.35.5.71.75,1.06-.25-.35-.5-.71-.75-1.06Z"/>
      <path class="cls-1" d="m217.24,146.17c.26.31.52.61.78.92-.26-.31-.52-.61-.78-.92Z"/>
      <path class="cls-1" d="m243.23,205.17l.79.92-.79-.92Z"/>
      <path class="cls-1" d="m213.23,137.17l.79.92-.79-.92Z"/>
      <path class="cls-1" d="m240.21,198.17l.8.97-.8-.97Z"/>
      <path class="cls-1" d="m239.24,196.17l.74,1.05-.74-1.05Z"/>
      <path class="cls-3" d="m180.97,459.06c-.03-.22-.04-.44-.04-.66.27.08.54.16.8.24l-.76.42Z"/>
      <path class="cls-1" d="m236.22,189.17c.26.31.53.63.79.94-.26-.31-.53-.63-.79-.94Z"/>
      <path class="cls-1" d="m232.24,180.17c.26.31.52.61.78.92-.26-.31-.52-.61-.78-.92Z"/>
      <path class="cls-1" d="m228.23,171.17l.79.92-.79-.92Z"/>
      <path class="cls-1" d="m225.21,164.17l.8.97-.8-.97Z"/>
      <path class="cls-1" d="m224.24,162.17l.74,1.05-.74-1.05Z"/>
      <path class="cls-1" d="m266.22,257.17c.26.31.53.63.79.94-.26-.31-.53-.63-.79-.94Z"/>
    </g>
  </g>
</svg>